<svg width="600" height="600" viewBox="0 0 600 600" fill="none" xmlns="http://www.w3.org/2000/svg">
<path d="M453.6 61C499.1 90.2 536 132.8 558.4 182C580.9 231.1 588.9 286.9 581.2 340.4C573.5 393.9 550.1 445.2 514.7 486.1C479.3 526.9 431.9 557.4 380 572.6C328.2 587.8 271.8 587.8 220 572.6C168.1 557.4 120.7 526.9 85.3 486.1C49.9 445.2 26.5 393.9 18.8 340.4C11.1 286.9 19.1 231.1 41.6 182C64 132.8 100.9 90.2 146.4 61C191.9 31.7 245.9 15.9 300 15.9C354.1 15.9 408.1 31.7 453.6 61Z" fill="#6415FF"/>
</svg>
